<?xml version="1.0" encoding="utf-8"?>
<!-- Generator: Adobe Illustrator 16.0.3, SVG Export Plug-In . SVG Version: 6.00 Build 0)  -->
<!DOCTYPE svg PUBLIC "-//W3C//DTD SVG 1.1//EN" "http://www.w3.org/Graphics/SVG/1.1/DTD/svg11.dtd" [
	<!ENTITY ns_extend "http://ns.adobe.com/Extensibility/1.0/">
	<!ENTITY ns_ai "http://ns.adobe.com/AdobeIllustrator/10.0/">
	<!ENTITY ns_graphs "http://ns.adobe.com/Graphs/1.0/">
	<!ENTITY ns_vars "http://ns.adobe.com/Variables/1.0/">
	<!ENTITY ns_imrep "http://ns.adobe.com/ImageReplacement/1.0/">
	<!ENTITY ns_sfw "http://ns.adobe.com/SaveForWeb/1.0/">
	<!ENTITY ns_custom "http://ns.adobe.com/GenericCustomNamespace/1.0/">
	<!ENTITY ns_adobe_xpath "http://ns.adobe.com/XPath/1.0/">
]>
<svg version="1.1" id="Capa_1" xmlns:x="&ns_extend;" xmlns:i="&ns_ai;" xmlns:graph="&ns_graphs;"
	 xmlns="http://www.w3.org/2000/svg" xmlns:xlink="http://www.w3.org/1999/xlink" x="0px" y="0px" width="638px" height="78px"
	 viewBox="-62.092 -22.219 638 78" enable-background="new -62.092 -22.219 638 78" xml:space="preserve">
<metadata>
	<sfw  xmlns="&ns_sfw;">
		<slices></slices>
		<sliceSourceBounds  width="633.134" height="41.355" y="194.823" x="1.932" bottomLeftOrigin="true"></sliceSourceBounds>
	</sfw>
</metadata>
<g>
	<g>
		<path fill="#1D1D1B" d="M-27.2-2.949l-1.857-0.065l0.129,0.392c0.817,2.522,1.144,5.644,1.095,10.446l-0.058,10.045
			c0,5.716-0.244,7.862-1.138,9.98c-0.643,1.447-1.823,2.747-3.318,3.656c-1.928,1.109-4.334,1.694-6.955,1.694
			c-4.52,0-8.337-2.034-9.72-5.184c-0.883-2.053-1.085-3.677-1.085-8.697l0.111-11.993c0.057-3.239,0.057-5.224,0.055-5.957
			c0.07-1.182,0.198-2.564,0.386-4.108l0.042-0.343l-2.106,0.131h-5.142l-1.583-0.058l-1.316,2.927h1
			c1.459,0,2.188,0.449,2.439,1.506c0.284,1.147,0.436,3.129,0.436,5.732l-0.057,10.2l-0.054,4.191
			c-0.058,5.623,0.835,8.82,3.185,11.408c1.179,1.246,2.726,2.245,4.583,2.967c2.316,1.031,5.058,1.534,8.384,1.534
			c4.417,0,8.111-0.992,10.979-2.95c3.456-2.398,5.223-5.854,5.559-10.872c0.109-1.419,0.165-3.021,0.165-4.76l0.059-11.05
			c0.054-5.373,0.159-6.513,0.716-10.498l0.047-0.342l-1.884,0.063H-27.2V-2.949z"/>
		<path fill="#1D1D1B" d="M8.286,1.002L6.711,0.936l0.136,0.4c0.744,2.185,1.187,6.411,1.187,11.302L7.986,24.049l0.107,2.532
			L-6.771,7.394c-1.887-2.438-2.603-3.506-4.251-6.35l-0.088-0.151l-2.609,0.108l-4.458,0.001l-1.396-0.057l-1.176,2.611h0.928
			c1.242,0,1.86,0.381,2.072,1.28c0.223,0.892,0.331,2.543,0.331,5.052l-0.05,15.169v4.156c0,1.148-0.13,2.235-0.287,3.449
			c-0.04,0.427-0.13,1.146-0.332,2.139l-0.075,0.371l1.749-0.116l2.718-0.001l1.685,0.125l-0.138-0.414
			c-0.693-2.036-1.09-5.557-1.09-9.659l0.046-16.15l-0.061-1.548l3.29,4.301L4.205,29.727c1.538,1.968,2.313,3.035,4.162,5.879
			l0.088,0.136l2.125-0.056h2.142l-0.026-0.314c-0.226-2.538-0.283-3.523-0.409-5.684l-0.026-0.44
			c-0.048-1.205-0.048-2.167-0.048-2.938l0.048-13.616c0-1.837,0.021-3.285,0.035-4.345c0.008-0.615,0.016-1.101,0.016-1.456
			c0-1.065,0.077-2.172,0.237-3.492c0.054-0.54,0.165-1.247,0.333-2.101l0.07-0.357l-1.746,0.06L8.286,1.002z"/>
		<path fill="#1D1D1B" d="M24.03,25.734l0.044-15.799c0-3.305,0.077-4.777,0.099-5.15c0.042-0.734,0.127-1.771,0.286-3.569
			l0.029-0.337l-1.806,0.124l-4.456,0.001L16.83,0.946l-1.176,2.611h0.928c1.241,0,1.86,0.381,2.073,1.28
			c0.225,0.9,0.33,2.476,0.33,4.952l-0.049,15.894c0,4.44-0.047,4.907-0.333,6.979c-0.041,0.436-0.129,1.079-0.288,2.153
			l-0.054,0.355l1.682-0.115l3.485-0.002l1.679,0.124l-0.131-0.409C24.304,32.69,24.03,30.072,24.03,25.734z"/>
		<path fill="#1D1D1B" d="M56.493,1.001h-3.589L50.959,0.94l0.125,0.391c0.277,0.852,0.321,1.207,0.321,1.838
			c0,1.729-0.569,3.953-1.901,7.436L44.31,24.223l-1.952,4.989l-1.438-4.54L35.636,9.164c-1.115-3.21-1.641-4.96-1.814-6.056
			c-0.066-0.296-0.108-0.717-0.161-1.249l-0.104-0.975l-1.944,0.117L27.83,1.002l-1.392-0.057l-1.179,2.611h0.928
			c1.1,0,1.55,0.333,2.188,1.623c0.678,1.467,1.297,3.063,1.867,4.566l7.779,21.296c0.809,2.288,0.947,2.802,1.236,4.59l0.041,0.264
			l1.448-0.124l2.079-0.001l1.274,0.128l0.051-0.257c0.472-2.376,0.648-2.916,2.1-6.418l8.109-19.653
			c0.292-0.676,0.726-1.644,1.342-2.991c0.579-1.253,1.013-2.167,1.289-2.739c0.289-0.532,0.724-1.302,1.294-2.313l0.09-0.16
			l-0.338-0.48L56.493,1.001z"/>
		<path fill="#1D1D1B" d="M81.877,29.385c-0.928,0.891-1.386,1.22-2.231,1.598c-0.564,0.259-1.218,0.454-1.851,0.552
			c-1.237,0.231-2.596,0.334-4.41,0.334c-2.709,0-3.75-0.217-4.446-0.921c-0.519-0.564-0.697-1.217-0.791-2.913l-0.006-0.082
			c-0.047-0.877-0.085-1.568-0.085-2.118v-6.976c1.717-0.078,2.476-0.078,3.693-0.078c1.505,0,3.041,0.046,4.704,0.142
			c0.472,0,1.168,0.047,2.132,0.141l0.348,0.035l-0.126-1.328l0.047-1.463l0.197-1.371l-1.115,0.093
			c-1.762,0.149-2.645,0.226-4.413,0.226h-5.427V9.801l0.185-5.583c1.383-0.09,2.561-0.124,3.224-0.124
			c1.771,0,3.311,0.188,4.582,0.561c1.086,0.321,1.475,0.575,2.309,1.515l0.107,0.12l0.924-0.156l0.376-1.375l0.618-1.96
			l0.788-1.958L79.47,0.896c-2.172,0.07-3.262,0.104-7.865,0.104H64.93l-4.08-0.049l-1.169,2.605h0.925
			c1.241,0,1.859,0.381,2.071,1.282c0.224,0.884,0.328,2.458,0.328,4.95l-0.047,15.894c0,4.375-0.036,4.818-0.333,6.979
			c-0.051,0.5-0.149,1.246-0.285,2.154l-0.051,0.337l5.09-0.097l6.433,0.091c2.553,0.038,4.26,0.072,5.133,0.088
			c0.395,0.009,0.621,0.014,0.68,0.014c0.283,0,0.699,0.026,1.244,0.059l0.865,0.051l0.389-1.978l0.425-1.871l0.498-1.78
			l-1.025-0.481L81.877,29.385z"/>
		<path fill="#1D1D1B" d="M110.905,32.535c-1.403-1.41-3.001-3.508-5.345-7.015l-4.853-7.157L99.8,17.135
			c2.176-1.154,3.446-2.049,4.481-3.145c1.293-1.385,2.002-3.325,2.002-5.459c0-2.464-0.906-4.567-2.555-5.922
			c-1.73-1.377-3.319-1.757-7.384-1.757c-1.069,0-2.173,0-3.422,0.045l-4.544,0.148l-4.037-0.099l-1.175,2.607h0.93
			c1.236,0,1.856,0.381,2.074,1.279c0.221,0.904,0.326,2.479,0.326,4.953L86.448,25.68c0,4.669-0.111,5.819-0.625,9.132
			l-0.057,0.357l1.69-0.116l3.485-0.001l1.673,0.124l-0.131-0.409c-0.669-2.069-0.942-4.688-0.942-9.036l0.048-15.798
			c0-3.196,0.035-3.952,0.106-5.458l0.023-0.469c1.639-0.219,2.354-0.259,3.136-0.259c3.851,0,6.151,2.132,6.151,5.708
			c0,2.702-1.349,4.894-3.519,5.721c-1.184,0.471-2.018,0.556-4.271,0.606l-0.238,0.006l-0.23,1.368l-0.375,1.565h0.849
			c1.066,0,1.813,0.375,3.412,2.589c2.907,3.973,4.538,6.442,6.712,10.172c0.496,0.831,0.816,1.447,1.008,1.831
			c0.182,0.316,0.325,0.575,0.428,0.769c0.092,0.167,0.157,0.286,0.217,0.379c0.14,0.181,0.326,0.471,0.558,0.841l0.092,0.146
			l2.178-0.152l3.657-0.094l1.495-0.065l0.096-0.741l-0.132-0.102C111.97,33.559,111.645,33.28,110.905,32.535z"/>
		<path fill="#1D1D1B" d="M126.384,14.95c-3.244-1.76-4.303-2.497-5.321-3.389c-1.007-0.926-1.542-2.139-1.542-3.509
			c0-2.916,2.26-4.877,5.621-4.877c2.754,0,4.398,0.845,6.058,3.113l0.104,0.141l0.989-0.146l0.281-1.191l0.71-2.253l0.65-1.63
			l-0.291-0.098c-2.537-0.847-3.545-1.077-5.396-1.22c-0.556-0.049-1.15-0.097-1.757-0.097c-6.957,0-11.628,3.978-11.628,9.901
			c0,2.297,0.832,4.43,2.342,6.002c1.361,1.361,2.072,1.826,6.361,4.151c2.837,1.542,4.133,2.487,5.143,3.742
			c0.768,0.951,1.189,2.189,1.189,3.486c0,3.283-2.787,5.758-6.481,5.758c-1.413,0-3.047-0.492-4.173-1.261
			c-0.867-0.544-1.269-1.046-2.116-2.373l-0.109-0.17l-1.052,0.224l-0.896,3.589l-0.614,1.95l0.259,0.096
			c2.428,0.894,3.362,1.081,5.315,1.27l0.334,0.023c0.547,0.041,1.067,0.081,1.557,0.081c7.405,0,12.779-4.674,12.779-11.112
			c0-2.067-0.619-3.963-1.793-5.491C131.575,17.972,130.355,17.091,126.384,14.95z"/>
		<path fill="#1D1D1B" d="M143.962,25.734l0.058-15.799c0-2.3,0.034-4.225,0.089-5.15c0.053-0.826,0.147-1.994,0.289-3.569
			l0.03-0.337l-1.81,0.124l-4.453,0.001l-1.397-0.058l-1.182,2.611h0.936c1.246,0,1.864,0.381,2.073,1.279
			c0.222,0.91,0.33,2.53,0.33,4.953l-0.051,15.894c0,4.414-0.048,4.884-0.335,6.979c-0.043,0.469-0.137,1.174-0.283,2.153
			l-0.053,0.355l1.68-0.115l3.487-0.002l1.676,0.124l-0.133-0.409C144.249,32.715,143.962,30.012,143.962,25.734z"/>
		<path fill="#1D1D1B" d="M174.737,2.726c-2.167-1.144-4.573-1.626-8.57-1.724c-1.205-0.049-2.654-0.049-4.333-0.049
			c-0.987,0-2.274,0.012-3.56,0.025c-1.285,0.012-2.568,0.024-3.55,0.024l-4.457,0.001l-1.397-0.058L147.7,3.557h0.924
			c1.242,0,1.863,0.381,2.074,1.279c0.223,0.899,0.326,2.475,0.326,4.953l-0.05,15.894c0,4.468-0.048,4.933-0.334,6.979
			c-0.043,0.466-0.136,1.17-0.285,2.153l-0.053,0.355l1.684-0.115h3.51c1.762,0,3.157,0.053,4.281,0.097
			c0.703,0.027,1.276,0.05,1.723,0.05c6.194,0,10.358-1.233,13.918-4.123c4.187-3.344,6.587-8.621,6.587-14.48
			C182.003,10.323,179.288,5.135,174.737,2.726z M162.505,31.82c-1.881,0-3.56-0.16-4.481-0.43
			c-0.411-0.121-0.755-0.327-1.071-0.639c-0.513-0.559-0.694-1.24-0.787-2.918l-0.014-0.253c-0.043-0.715-0.084-1.39-0.084-1.947
			l0.051-15.692l0.137-5.572l1.506-0.077c1.94-0.099,3.112-0.158,4.308-0.158c5.648,0,8.623,0.983,10.975,3.627
			c2.12,2.409,3.288,5.979,3.288,10.05C176.332,26.584,171.165,31.82,162.505,31.82z"/>
		<path fill="#1D1D1B" d="M210.946,32.655c-1.196-2.402-2.183-4.643-2.78-6.303l-7.972-21.304c-0.813-2.095-1.002-2.842-1.479-4.887
			l-0.064-0.267l-1.322,0.238l-3.306,0.51l-0.048,0.186c-0.623,2.385-0.853,3.197-2.012,6.003l-7.969,19.713
			c-0.289,0.735-0.724,1.736-1.292,2.978l-0.339,0.708c-0.411,0.859-0.736,1.539-1.002,2.039c-0.238,0.477-0.621,1.203-1.147,2.165
			l-0.081,0.15l0.373,0.572l1.449-0.103l3.3-0.001l1.892,0.118l-0.113-0.394c-0.277-0.97-0.32-1.425-0.32-2.137
			c0-1.396,0.462-3.377,1.375-5.89l1.564-4.214l3.156-0.088h5.708l2.741,0.087l1.563,4.595c0.989,2.883,1.449,4.325,1.722,5.811
			c0.071,0.312,0.14,0.763,0.228,1.333l0.143,0.946l2.359-0.165l3.055-0.002l2.05,0.127l-0.291-0.473
			C211.561,33.857,211.371,33.527,210.946,32.655z M200.052,19.175l-2.101,0.083H193.3l-2.431-0.083l4.81-12.735L200.052,19.175z"/>
		<path fill="#1D1D1B" d="M238.143,2.726c-2.169-1.146-4.576-1.626-8.575-1.724c-1.208-0.049-2.657-0.049-4.335-0.049
			c-0.982,0-2.267,0.012-3.552,0.025c-1.285,0.012-2.568,0.024-3.552,0.024l-4.458,0.001l-1.396-0.056L211.1,3.558h0.924
			c1.242,0,1.863,0.382,2.075,1.279c0.223,0.9,0.333,2.521,0.333,4.953l-0.048,15.894c0,4.408-0.048,4.88-0.339,6.979
			c-0.046,0.479-0.149,1.202-0.285,2.156l-0.048,0.354l1.681-0.115h3.505c1.757,0,3.155,0.053,4.277,0.098
			c0.703,0.026,1.278,0.049,1.728,0.049c6.193,0,10.354-1.233,13.911-4.122c4.189-3.345,6.594-8.622,6.594-14.481
			C245.406,10.323,242.692,5.137,238.143,2.726z M225.908,31.82c-1.876,0-3.555-0.16-4.479-0.43
			c-0.419-0.122-0.761-0.328-1.071-0.64c-0.515-0.557-0.693-1.21-0.789-2.916l-0.025-0.468c-0.037-0.636-0.072-1.232-0.072-1.733
			l0.053-15.692l0.137-5.572l1.492-0.076c1.947-0.1,3.121-0.159,4.323-0.159c5.653,0,8.628,0.983,10.975,3.627
			c2.12,2.412,3.29,5.98,3.29,10.05C239.741,26.584,234.57,31.82,225.908,31.82z"/>
		<path fill="#1D1D1B" d="M276.975,7.21c-1.61-0.845-3.465-1.218-6.395-1.288c-0.896-0.035-1.972-0.035-3.217-0.035
			c-0.732,0-1.687,0.008-2.642,0.018c-0.949,0.009-1.9,0.017-2.633,0.017l-3.307,0.001l-1.084-0.042l-0.941,2.089h0.806
			c1.1,0,1.354,0.449,1.463,0.892c0.168,0.658,0.243,1.823,0.243,3.664l-0.041,11.787c0,3.238-0.025,3.624-0.248,5.169
			c-0.032,0.36-0.105,0.892-0.209,1.594l-0.056,0.354l1.339-0.087h2.599c1.31,0,2.347,0.04,3.18,0.072
			c0.522,0.02,0.945,0.035,1.28,0.035c4.613,0,7.716-0.92,10.37-3.075c3.126-2.486,4.919-6.423,4.919-10.799
			C282.405,12.883,280.376,9.008,276.975,7.21z M267.862,28.785c-1.411,0-2.648-0.115-3.302-0.305
			c-0.303-0.091-0.546-0.238-0.763-0.454c-0.371-0.405-0.497-0.881-0.568-2.111l-0.025-0.521c-0.022-0.41-0.043-0.788-0.043-1.112
			l0.041-11.65l0.096-4.07l1.323-0.063c1.259-0.062,2.089-0.101,2.919-0.101c4.227,0,6.344,0.697,8.088,2.661
			c1.564,1.78,2.424,4.41,2.424,7.409C278.052,24.93,274.241,28.785,267.862,28.785z"/>
		<path fill="#1D1D1B" d="M299.415,27.005c-0.676,0.648-1.011,0.89-1.627,1.165c-0.428,0.195-0.897,0.338-1.365,0.413
			c-0.91,0.169-1.915,0.244-3.258,0.244c-1.956,0-2.747-0.163-3.246-0.658c-0.368-0.409-0.496-0.884-0.565-2.118l-0.023-0.414
			c-0.023-0.483-0.047-0.885-0.047-1.219v-5.1c1.222-0.061,1.78-0.061,2.669-0.061c1.047,0,2.15,0.034,3.488,0.108
			c0.342,0,0.857,0.033,1.584,0.108l0.354,0.035l-0.11-1.075l0.031-1.073l0.164-1.108l-0.912,0.077
			c-1.31,0.111-1.967,0.166-3.281,0.166h-3.951v-3.962l0.137-4.078c0.907-0.06,1.775-0.096,2.315-0.096
			c1.264,0,2.434,0.146,3.379,0.422c0.794,0.233,1.076,0.42,1.689,1.1l0.108,0.121l0.756-0.135l0.752-2.504l0.628-1.56l-1.373,0.041
			c-1.669,0.054-2.432,0.078-5.862,0.078h-4.954l-3.073-0.036l-0.941,2.084h0.807c1.104,0,1.359,0.449,1.463,0.89
			c0.164,0.669,0.246,1.869,0.246,3.666l-0.036,11.787c0,3.307-0.044,3.624-0.253,5.168c-0.035,0.358-0.104,0.892-0.215,1.592
			l-0.055,0.34l3.872-0.07l4.768,0.064c1.906,0.029,3.175,0.056,3.823,0.072c0.285,0.006,0.451,0.009,0.497,0.009
			c0.22,0,0.551,0.021,0.997,0.049l0.631,0.036l0.296-1.533l0.32-1.381l0.375-1.381l-0.853-0.41L299.415,27.005z"/>
		<path fill="#1D1D1B" d="M344.605,29.736c-2.18,1.601-3.07,1.968-5.441,2.576c-1.903,0.45-3.451,0.659-4.873,0.659
			c-9.113,0-15.235-6.875-15.235-17.11c0-9.904,5.501-16.055,14.356-16.055c4.35,0,7.285,1.27,9.813,4.242l0.087,0.103h1.128
			l0.506-1.875l0.664-2.223l0.701-2.121l-0.276-0.088c-2.592-0.842-3.663-1.127-5.764-1.401c-1.677-0.231-3.171-0.339-4.699-0.339
			c-6.938,0-12.072,1.598-16.158,5.032c-4.475,3.808-7.038,9.458-7.038,15.504c0,7.944,4.115,15.139,10.479,18.329
			c2.785,1.406,6.379,2.15,10.393,2.15c1.694,0,3.926-0.152,5.688-0.388l0.077-0.014c1.297-0.218,2.322-0.39,4.898-1.055
			l0.161-0.041l0.539-1.88l0.606-1.825l0.575-1.542l-1.007-0.765L344.605,29.736z"/>
		<path fill="#1D1D1B" d="M364.518-0.349c-10.404,0-18.25,7.994-18.25,18.594c0,10.664,6.894,18.113,16.763,18.113
			c10.905,0,18.82-7.983,18.82-18.978C381.851,6.61,375.048-0.349,364.518-0.349z M364.133,33.027
			c-7.067,0-12.004-6.435-12.004-15.646c0-8.748,4.711-14.398,12.004-14.398c6.984,0,11.866,6.475,11.866,15.746
			C375.999,27.414,371.34,33.027,364.133,33.027z"/>
		<path fill="#1D1D1B" d="M394.961,14.95c-3.244-1.76-4.301-2.496-5.318-3.389c-1.008-0.926-1.541-2.138-1.541-3.509
			c0-2.916,2.258-4.877,5.616-4.877c2.755,0,4.398,0.845,6.063,3.113l0.102,0.141l0.989-0.146l0.288-1.191l0.707-2.255l0.636-1.629
			l-0.286-0.096c-2.522-0.847-3.53-1.076-5.394-1.22c-0.526-0.047-1.143-0.097-1.752-0.097c-6.955,0-11.629,3.978-11.629,9.901
			c0,2.3,0.833,4.431,2.346,6.001c1.343,1.354,2.055,1.821,6.355,4.153c2.83,1.539,4.128,2.485,5.144,3.743
			c0.768,0.951,1.191,2.188,1.191,3.485c0,3.283-2.787,5.758-6.484,5.758c-1.422,0-3.054-0.492-4.17-1.261
			c-0.869-0.549-1.293-1.073-2.118-2.373l-0.108-0.17l-1.051,0.224l-0.901,3.589l-0.613,1.95l0.26,0.096
			c2.431,0.894,3.363,1.083,5.317,1.27l0.333,0.023c0.551,0.041,1.069,0.081,1.564,0.081c7.401,0,12.772-4.674,12.772-11.112
			c0-2.065-0.618-3.963-1.79-5.491C400.152,17.968,398.931,17.086,394.961,14.95z"/>
		<path fill="#1D1D1B" d="M421.554,25.734l0.049-15.936l0.176-5.752c3.603,0.048,4.413,0.089,5.926,0.283
			c0.723,0.104,1.363,0.257,1.967,0.469c0.897,0.319,1.295,0.619,2.199,1.487l0.094,0.09l0.975-0.078l0.272-1.409l0.524-2.065
			l0.659-1.977l-3.966,0.082c-4.384,0.089-8.166,0.168-11.416,0.168c-3.242,0-6.876-0.082-11.077-0.178l-3.121-0.071l-0.164,1.899
			l-0.291,2.233l-0.123,1.365l1.042,0.071l0.092-0.088c0.838-0.787,1.254-1.07,2.118-1.435c1.441-0.58,2.779-0.76,5.949-0.799
			c0.303,0,0.667-0.01,1.088-0.021c0.51-0.012,1.109-0.028,1.8-0.03c0.015,0.492,0.026,0.944,0.036,1.348
			c0.013,0.598,0.024,1.095,0.051,1.463c0.051,1.497,0.051,2.47,0.051,2.935l-0.051,15.891l-0.003,0.221
			c-0.043,4.237-0.048,4.68-0.334,6.762c-0.039,0.4-0.128,1.1-0.327,2.143l-0.071,0.366l1.798-0.114l3.48-0.001l1.632,0.125
			l-0.133-0.412C421.807,32.793,421.554,30.262,421.554,25.734z"/>
		<path fill="#1D1D1B" d="M457.448,32.655c-1.203-2.422-2.188-4.658-2.777-6.303l-7.966-21.304
			c-0.802-2.066-0.995-2.819-1.482-4.887l-0.063-0.267l-3.425,0.579l-1.201,0.171l-0.048,0.185c-0.616,2.36-0.844,3.165-2.011,6.003
			l-7.974,19.712c-0.241,0.606-0.662,1.617-1.295,2.979l-0.202,0.429c-0.467,0.986-0.835,1.765-1.136,2.32
			c-0.184,0.366-0.529,1.038-1.146,2.162l-0.087,0.154l0.385,0.568l1.448-0.101l3.292-0.001l1.896,0.117l-0.112-0.392
			c-0.278-0.995-0.327-1.464-0.327-2.139c0-1.389,0.465-3.37,1.379-5.889l1.56-4.215l3.163-0.088h5.711l2.725,0.087l1.571,4.597
			c0.956,2.786,1.435,4.286,1.716,5.81c0.099,0.42,0.192,1.071,0.328,1.973l0.043,0.306l2.36-0.165l3.057-0.001l2.046,0.126
			l-0.289-0.473C458.059,33.841,457.875,33.514,457.448,32.655z M446.562,19.175l-2.101,0.083h-4.649l-2.432-0.083l4.812-12.735
			L446.562,19.175z"/>
		<path fill="#1D1D1B" d="M496.944,33.446c-1.646-1.651-3.494-4.072-6.185-8.096l-5.601-8.271l-1.081-1.458
			c2.542-1.349,4.02-2.381,5.217-3.638c1.48-1.604,2.296-3.831,2.296-6.275c0-2.83-1.04-5.248-2.934-6.813
			c-1.988-1.579-3.814-2.011-8.503-2.011c-1.229,0-2.499,0-3.941,0.055l-5.255,0.169l-4.633-0.114l-1.316,2.924h1.006
			c1.454,0,2.184,0.449,2.431,1.506c0.263,1.04,0.387,2.86,0.387,5.733l-0.058,18.354c0,5.14-0.094,6.521-0.718,10.554l-0.058,0.359
			l1.895-0.143h4.023l1.876,0.15l-0.133-0.412c-0.775-2.405-1.093-5.437-1.093-10.458l0.053-18.242c0-3.67,0.04-4.542,0.125-6.278
			l0.029-0.607c1.91-0.248,2.743-0.294,3.66-0.294c4.474,0,7.146,2.477,7.146,6.624c0,3.148-1.565,5.694-4.092,6.649
			c-1.363,0.549-2.332,0.65-4.945,0.707l-0.238,0.005l-0.258,1.553l-0.421,1.757h0.924c1.404,0,2.299,0.671,3.988,2.998
			c3.374,4.641,5.256,7.495,7.747,11.75c0.553,0.933,0.929,1.655,1.156,2.115c0.197,0.337,0.35,0.62,0.47,0.835
			c0.121,0.227,0.209,0.386,0.277,0.48c0.149,0.198,0.35,0.502,0.649,0.983l0.094,0.147l2.484-0.181l4.222-0.109l1.683-0.064
			l0.117-0.8l-0.137-0.104C498.206,34.665,497.83,34.342,496.944,33.446z"/>
		<path fill="#1D1D1B" d="M507.368,25.734l0.048-15.799c0-2.562,0.046-4.339,0.089-5.15c0.046-0.755,0.133-1.823,0.299-3.569
			l0.027-0.338l-1.81,0.124l-4.462,0.001l-1.392-0.057l-1.177,2.611h0.929c1.243,0,1.862,0.381,2.071,1.28
			c0.227,0.896,0.33,2.469,0.33,4.952l-0.046,15.894c0,4.436-0.048,4.903-0.336,6.98c-0.041,0.43-0.129,1.094-0.286,2.152
			l-0.051,0.355l1.68-0.115l3.49-0.002l1.668,0.124l-0.132-0.407C507.639,32.698,507.368,30.078,507.368,25.734z"/>
		<path fill="#1D1D1B" d="M529.652,3.461c3.752,0,6.289,1.096,8.479,3.667l0.083,0.103h1.018l0.443-1.655l0.577-1.928l0.621-1.869
			l-0.277-0.089c-2.218-0.727-3.144-0.974-4.999-1.218c-1.452-0.2-2.744-0.294-4.072-0.294c-6.013,0-10.47,1.389-14.021,4.37
			c-3.88,3.31-6.102,8.214-6.102,13.456c0,6.888,3.564,13.131,9.086,15.908c2.428,1.218,5.545,1.861,9.018,1.861
			c1.504,0,3.444-0.131,4.945-0.338c1.117-0.183,2-0.328,4.301-0.918l0.162-0.041l0.474-1.644l0.518-1.586l0.513-1.363l-0.92-0.693
			l-0.173,0.127c-1.89,1.375-2.657,1.693-4.699,2.223c-1.671,0.393-3.007,0.574-4.209,0.574c-7.87,0-13.157-5.94-13.157-14.784
			C517.261,8.773,522.008,3.461,529.652,3.461z"/>
		<path fill="#1D1D1B" d="M573.183,34.708c-0.522-0.852-0.699-1.178-1.139-2.054c-1.188-2.38-2.171-4.615-2.772-6.303L561.3,5.048
			c-0.8-2.063-0.992-2.815-1.479-4.887l-0.063-0.267l-3.432,0.579l-1.198,0.171L555.08,0.83c-0.608,2.353-0.836,3.157-2.007,6.002
			l-7.975,19.713c-0.303,0.777-0.75,1.809-1.29,2.979l-0.048,0.104c-0.54,1.135-0.968,2.03-1.297,2.645
			c-0.263,0.531-0.67,1.301-1.144,2.162l-0.084,0.154l0.384,0.57l1.443-0.103l3.3-0.001l1.895,0.117l-0.113-0.392
			c-0.275-0.964-0.319-1.42-0.319-2.139c0-1.417,0.46-3.4,1.367-5.889l1.567-4.215l3.158-0.088h5.706l2.728,0.087l1.571,4.596
			c0.979,2.865,1.437,4.305,1.716,5.81c0.076,0.325,0.145,0.781,0.238,1.371l0.145,0.907l2.354-0.165l3.056-0.001l2.043,0.127
			L573.183,34.708z M561.155,19.175l-2.097,0.083h-4.646l-2.435-0.083l4.809-12.735L561.155,19.175z"/>
	</g>
</g>
</svg>
